<svg width="19" height="19" viewBox="0 0 19 19" fill="none" xmlns="http://www.w3.org/2000/svg">
<g clip-path="url(#clip0_67_1665)">
<path d="M2.17344 10.811L8.52617 16.7419C8.78984 16.988 9.13789 17.1251 9.5 17.1251C9.86211 17.1251 10.2102 16.988 10.4738 16.7419L16.8266 10.811C17.8953 9.81608 18.5 8.42038 18.5 6.96139V6.75749C18.5 4.30007 16.7246 2.20475 14.3023 1.80046C12.6992 1.53327 11.068 2.0571 9.92188 3.20319L9.5 3.62507L9.07812 3.20319C7.93203 2.0571 6.30078 1.53327 4.69766 1.80046C2.27539 2.20475 0.5 4.30007 0.5 6.75749V6.96139C0.5 8.42038 1.10469 9.81608 2.17344 10.811Z" fill="white"/>
</g>
<defs>
<clipPath id="clip0_67_1665">
<path d="M0.5 0.25H18.5V18.25H0.5V0.25Z" fill="white"/>
</clipPath>
</defs>
</svg>
